<?xml version="1.0" encoding="UTF-8" standalone="no"?>
<!DOCTYPE svg PUBLIC "-//W3C//DTD SVG 1.1//EN" "http://www.w3.org/Graphics/SVG/1.1/DTD/svg11.dtd">
<svg width="100%" height="100%" viewBox="0 0 144 24" version="1.1" xmlns="http://www.w3.org/2000/svg" xmlns:xlink="http://www.w3.org/1999/xlink" xml:space="preserve" xmlns:serif="http://www.serif.com/" style="fill-rule:evenodd;clip-rule:evenodd;stroke-linejoin:round;stroke-miterlimit:2;">
    <path d="M12,18.324L19.416,22.8L17.448,14.364L24,8.688L15.372,7.956L12,0L8.628,7.956L0,8.688L6.552,14.364L4.584,22.8L12,18.324Z" style="fill:rgb(31,166,252);fill-rule:nonzero;"/>
    <path d="M42,18.324L49.416,22.8L47.448,14.364L54,8.688L45.372,7.956L42,0L38.628,7.956L30,8.688L36.552,14.364L34.584,22.8L42,18.324Z" style="fill:rgb(31,166,252);fill-rule:nonzero;"/>
    <path d="M72,18.324L79.416,22.8L77.448,14.364L84,8.688L75.372,7.956L72,0L68.628,7.956L60,8.688L66.552,14.364L64.584,22.8L72,18.324Z" style="fill:rgb(31,166,252);fill-rule:nonzero;"/>
    <path d="M102,18.324L109.416,22.8L107.448,14.364L114,8.688L105.372,7.956L102,0L98.628,7.956L90,8.688L96.552,14.364L94.584,22.8L102,18.324Z" style="fill:rgb(31,166,252);fill-rule:nonzero;"/>
    <path d="M132,18.324L139.416,22.8L137.448,14.364L144,8.688L135.372,7.956L132,0L128.628,7.956L120,8.688L126.552,14.364L124.584,22.8L132,18.324Z" style="fill:rgb(31,166,252);fill-rule:nonzero;"/>
</svg>
