<?xml version="1.0" encoding="UTF-8" standalone="no"?>
<svg width="730" height="160" viewBox="0 0 730 160" fill="none" xmlns="http://www.w3.org/2000/svg">
<rect width="730" height="160" fill="#00B3FF"/>
<path d="M172.877 95L170.959 89.821H158.855L156.937 95H148.996L159.987 66.4198H169.808L180.799 95H172.877ZM161.099 83.7406H168.714L164.916 73.4018L161.099 83.7406ZM195.3 95.5371C187.531 95.5371 183.484 91.4898 183.484 83.5488V66.4198H187.148V83.5488C187.148 89.3607 189.967 92.2954 195.3 92.2954C200.632 92.2954 203.49 89.3607 203.49 83.5488V66.4198H207.154V83.5488C207.154 91.4898 203.068 95.5371 195.3 95.5371ZM219.372 95V69.5848H210.76V66.4198H231.648V69.5848H223.017V95H219.372ZM248.298 95.6138C238.304 95.6138 232.837 90.6842 232.837 80.6907C232.837 70.7356 238.304 65.806 248.298 65.806C258.272 65.806 263.739 70.7356 263.739 80.6907C263.739 90.6842 258.272 95.6138 248.298 95.6138ZM248.298 92.3913C255.721 92.3913 259.96 88.5167 259.96 80.6907C259.96 72.9031 255.721 69.0669 248.298 69.0669C240.855 69.0669 236.616 72.9031 236.616 80.6907C236.616 88.5167 240.855 92.3913 248.298 92.3913ZM302.945 95.0959L297.901 73.0182L293.412 95.0959H281.692L275.343 66.4198H283.764L288.176 88.1715L292.395 66.3431H303.367L308.105 88.2482L312.152 66.4198H320.573L314.665 95.0959H302.945ZM323.968 95V66.4198H327.612V95H323.968ZM333.444 95V66.4198H336.052L354.428 88.4592V66.4198H358.072V95H355.502L337.088 72.999V95H333.444ZM363.827 95V66.4198H373.916C383.948 66.4198 389.28 71.407 389.28 80.614C389.28 89.9553 383.948 95 373.916 95H363.827ZM367.51 91.7775H373.974C381.665 91.7775 385.482 87.8262 385.482 80.614C385.482 73.5361 381.665 69.6423 373.974 69.6423H367.51V91.7775ZM407.541 95.6138C397.547 95.6138 392.081 90.6842 392.081 80.6907C392.081 70.7356 397.547 65.806 407.541 65.806C417.515 65.806 422.982 70.7356 422.982 80.6907C422.982 90.6842 417.515 95.6138 407.541 95.6138ZM407.541 92.3913C414.964 92.3913 419.203 88.5167 419.203 80.6907C419.203 72.9031 414.964 69.0669 407.541 69.0669C400.099 69.0669 395.86 72.9031 395.86 80.6907C395.86 88.5167 400.099 92.3913 407.541 92.3913ZM450.814 95.3069L443.64 70.5822L436.658 95.3069H431.825L424.19 66.4198H428.084L434.491 91.298L441.434 66.1705H445.808L452.981 91.298L459.215 66.4198H463.109L455.667 95.3069H450.814ZM486.99 95.6138C482.214 95.6138 477.591 94.2711 474.273 91.7967L476.632 85.4477C480.046 87.5193 483.844 88.6893 487.163 88.6893C489.81 88.6893 491.44 87.9605 491.44 86.5219C491.44 85.1024 489.445 84.316 486.472 83.7022C479.222 82.2828 474.656 79.233 474.656 74.2842C474.656 68.76 479.049 65.806 486.453 65.806C490.232 65.806 494.125 66.6308 497.175 68.0886L495.948 74.898C492.572 73.5553 489.004 72.8072 486.127 72.8072C483.748 72.8072 482.31 73.3635 482.31 74.6103C482.31 75.9146 484.305 76.5668 487.354 77.1614C494.241 78.3314 498.595 81.4772 498.595 86.6945C498.595 92.4681 494.26 95.6138 486.99 95.6138ZM509.24 95V69.5848H500.628V66.4198H521.516V69.5848H512.885V95H509.24ZM525.64 95V66.4198H529.285V95H525.64ZM548.946 95.6138C539.24 95.6138 533.677 90.6842 533.677 80.6907C533.677 70.7356 539.24 65.806 548.946 65.806C557.635 65.806 562.373 69.5464 563.466 77.0846H559.649C558.575 71.7139 555.084 69.0669 548.946 69.0669C541.791 69.0669 537.456 72.9031 537.456 80.6907C537.456 88.5167 541.791 92.3913 548.946 92.3913C555.122 92.3913 558.613 89.6676 559.668 84.2201H563.485C562.411 91.8543 557.654 95.6138 548.946 95.6138ZM578.773 83.0884C577.852 81.7649 576.797 81.1703 575.32 81.1703H571.33V95H567.686V66.4198H571.33V78.0054H575.243C576.586 78.0054 577.411 77.2956 578.37 76.2023L586.541 66.4198H590.818L582.129 76.7586C580.959 78.2355 579.923 79.0795 578.638 79.4823C580.096 79.8276 581.266 80.6524 582.379 82.2636L591.317 95H587.04L578.773 83.0884ZM594.77 95V66.4198H615.524V69.6231H598.357V78.3123H611.803V81.458H598.357V91.7967H615.524V95H594.77ZM620.281 95V66.4198H633.19C639.558 66.4198 642.742 69.297 642.742 74.4952C642.742 79.2138 640.114 82.0334 634.84 82.4938C635.703 83.0692 636.317 83.8365 636.815 84.7188L643.145 95H638.868L632.615 84.6613C631.982 83.5488 631.118 82.5705 629.181 82.5705H623.925V95H620.281ZM633.228 79.6358C637.122 79.6358 639.059 77.7752 639.059 74.5335C639.059 71.3111 637.084 69.4505 633.228 69.4505H623.925V79.6358H633.228ZM656.764 95.6138C652.678 95.6138 648.478 94.3095 645.466 91.7775L646.713 88.651C649.628 90.9719 653.369 92.2954 656.821 92.2954C660.907 92.2954 663.612 90.7226 663.612 87.385C663.612 83.9516 660.293 82.6472 656.284 81.6114C650.626 80.2687 645.85 78.2163 645.85 73.1333C645.85 68.1462 650.031 65.806 656.112 65.806C659.488 65.806 663.228 66.7076 666.048 68.3763L665.319 71.6755C662.518 70.0643 658.989 69.1436 655.997 69.1436C652.026 69.1436 649.494 70.352 649.494 73.2484C649.494 76.2982 652.717 77.2765 656.802 78.3123C662.346 79.5782 667.064 82.0142 667.064 87.4426C667.064 92.8709 662.825 95.6138 656.764 95.6138Z" fill="white"/>
<path fill-rule="evenodd" clip-rule="evenodd" d="M117.825 46.0461C115.395 43.5505 112.099 42.1486 108.663 42.1486H59.9934C56.5569 42.1486 53.2611 43.5505 50.8314 46.0461C48.4011 48.5418 47.036 51.927 47.036 55.4566V105.442C47.036 108.971 48.4011 112.356 50.8314 114.852C53.2611 117.348 56.5569 118.75 59.9934 118.75H94.6213C95.8969 118.75 97.1207 118.231 98.0254 117.307L120.197 94.6551C121.108 93.7247 121.62 92.4598 121.62 91.1404V55.4566C121.62 51.927 120.255 48.5418 117.825 46.0461ZM59.9934 52.0638H108.663C109.538 52.0638 110.379 52.421 110.998 53.0574C111.618 53.6937 111.966 54.5569 111.966 55.4566V83.823H97.9866C94.9907 83.823 92.1174 85.0453 89.9991 87.2209C87.8809 89.3964 86.6907 92.3476 86.6907 95.4248V108.835H59.9934C59.1176 108.835 58.2773 108.477 57.6575 107.841C57.0378 107.205 56.6898 106.342 56.6898 105.442V55.4566C56.6898 54.5569 57.0378 53.6937 57.6575 53.0574C58.2773 52.421 59.1176 52.0638 59.9934 52.0638ZM96.3444 105.039L107.406 93.7381H97.9866C97.5514 93.7381 97.1337 93.9158 96.8259 94.2321C96.5175 94.5484 96.3444 94.9775 96.3444 95.4248V105.039Z" fill="white"/>
</svg>
