<?xml version="1.0" encoding="UTF-8"?>
<!-- (c) Carrd Inc. All rights reserved. All logos and trademarks are property of their respective owners. -->
<svg xmlns="http://www.w3.org/2000/svg" version="1.1" xmlns:xlink="http://www.w3.org/1999/xlink" viewBox="0 0 40 40" display="none" width="0" height="0">
	<symbol id="arrow-right-light" viewBox="0 0 40 40"><path d="M34.1,19.9c0,0.3-0.1,0.3-0.1,0.4L21.3,33.1c-0.1,0.1-0.1,0.1-0.4,0.1c-0.3,0-0.3-0.1-0.4-0.1L19,31.6 c-0.1-0.1-0.1-0.1-0.1-0.4s0.1-0.3,0.1-0.4l9.2-9.2H5.8c-0.1,0-0.2,0-0.2,0c0,0,0,0,0,0c-0.1-0.1-0.1-0.2-0.1-0.4v-2.5 c0-0.2,0.1-0.4,0.1-0.5c0,0,0.1,0,0.2,0h22.4L19,9c-0.1-0.1-0.1-0.1-0.1-0.4c0-0.3,0.1-0.3,0.1-0.4l1.5-1.5c0.1-0.1,0.1-0.1,0.4-0.1 c0.3,0,0.3,0.1,0.4,0.1L34,19.5C34,19.6,34.1,19.6,34.1,19.9z"/></symbol>
	<symbol id="cart" viewBox="0 0 40 40"><path d="M13,32.1c-0.5-0.5-1.1-0.7-1.9-0.7s-1.4,0.2-1.9,0.7c-0.5,0.5-0.7,1.1-0.7,1.9c0,0.7,0.2,1.4,0.7,1.9 c0.5,0.5,1.1,0.7,1.9,0.7s1.4-0.2,1.9-0.7c0.5-0.5,0.7-1.1,0.7-1.9S13.5,32.6,13,32.1z M31.2,32.1c-0.5-0.5-1-0.7-1.8-0.7 s-1.4,0.2-1.9,0.7c-0.5,0.5-0.7,1.1-0.7,1.9c0,0.7,0.2,1.4,0.7,1.9s1.1,0.7,1.9,0.7s1.4-0.2,1.9-0.7c0.5-0.5,0.7-1.1,0.7-1.9 S31.7,32.6,31.2,32.1z M34.2,9.8c-0.2-0.2-0.5-0.4-0.9-0.4H8.9c0-0.1,0-0.3-0.1-0.5c0-0.3-0.1-0.5-0.1-0.6c0-0.1-0.1-0.3-0.2-0.5 c0-0.2-0.1-0.4-0.2-0.5C8.1,7.1,8,7,7.8,6.9C7.6,6.8,7.4,6.8,7.2,6.8H2c-0.3,0-0.6,0.1-0.9,0.4C0.7,7.6,0.7,7.8,0.7,8.1 c0,0.3,0.1,0.6,0.4,0.9s0.5,0.4,0.9,0.4h4.2l3.5,17.8c0,0.1-0.1,0.3-0.3,0.6c-0.2,0.3-0.3,0.6-0.4,0.8c-0.1,0.2-0.2,0.4-0.3,0.7 c-0.1,0.3-0.2,0.5-0.2,0.6c0,0.3,0.1,0.6,0.4,0.9c0.2,0.2,0.5,0.4,0.9,0.4h20.9c0.3,0,0.6-0.1,0.9-0.4c0.2-0.2,0.4-0.5,0.4-0.9 c0-0.4-0.1-0.6-0.4-0.9c-0.2-0.2-0.5-0.4-0.9-0.4H12.1c0.3-0.6,0.5-1,0.5-1.4c0-0.1-0.1-0.6-0.3-1.5l21.3-2.5c0.3,0,0.6-0.2,0.8-0.4 c0.2-0.2,0.3-0.5,0.3-0.8V10.7C34.7,10.4,34.5,10.1,34.2,9.8z" /></symbol>
	<symbol id="cancel-light" viewBox="0 0 40 40"><path d="M7.6,30.5l10.3-10.3L7.6,9.9c-0.2-0.2-0.2-0.5,0-0.7L9,7.8c0.2-0.2,0.5-0.2,0.7,0L20,18L30.3,7.8c0.2-0.2,0.5-0.2,0.7,0 l1.4,1.4c0.2,0.2,0.2,0.5,0,0.7L22.2,20.2l10.3,10.3c0.2,0.2,0.2,0.5,0,0.7L31,32.6c-0.2,0.2-0.5,0.2-0.7,0L20,22.4L9.7,32.6 c-0.2,0.2-0.5,0.2-0.7,0l-1.5-1.5C7.4,31,7.4,30.6,7.6,30.5z"/></symbol>
	<symbol id="phone" viewBox="0 0 40 40"><path d="M34.8,28.8c0,0.4-0.1,0.8-0.2,1.5c-0.1,0.6-0.2,1.1-0.5,1.4c-0.4,0.7-1.2,1.4-2.6,2.2C30.2,34.7,29,35,27.7,35 c-0.4,0-0.7,0-1.1-0.1c-0.4,0-0.7-0.1-1.2-0.2c-0.5-0.1-0.8-0.2-0.9-0.4c-0.2-0.1-0.6-0.2-1.2-0.5c-0.6-0.2-0.9-0.4-1.1-0.4 c-1.4-0.5-2.6-1.1-3.6-1.8c-1.8-1.1-3.6-2.6-5.5-4.4c-1.9-1.9-3.4-3.7-4.4-5.5C8,20.8,7.4,19.5,7,18.2c0-0.1-0.1-0.5-0.4-1.1 C6.4,16.5,6,16.2,6,16c-0.1-0.2-0.2-0.6-0.4-0.9c-0.1-0.5-0.2-0.8-0.2-1.2s-0.1-0.7-0.1-1.1c0-1.3,0.4-2.6,1.1-3.9 c0.8-1.5,1.5-2.5,2.2-2.7C9,6.1,9.4,5.9,10,5.8c0.6-0.1,1.1-0.2,1.5-0.2c0.2,0,0.4,0,0.5,0.1c0.2,0.1,0.6,0.6,1.1,1.5 c0.1,0.2,0.4,0.6,0.6,1.2c0.2,0.5,0.5,0.9,0.7,1.3c0.2,0.4,0.5,0.8,0.7,1.2c0,0,0.1,0.2,0.4,0.5c0.2,0.2,0.4,0.6,0.5,0.7 c0.1,0.2,0.1,0.4,0.1,0.6c0,0.2-0.2,0.6-0.6,1.1c-0.4,0.5-0.8,0.8-1.3,1.2s-0.9,0.7-1.3,1.1c-0.4,0.4-0.6,0.7-0.6,0.9 c0,0.1,0,0.2,0.1,0.5c0.1,0.2,0.1,0.4,0.2,0.5c0,0.1,0.1,0.2,0.4,0.5c0.1,0.2,0.2,0.4,0.2,0.4c1.1,1.9,2.2,3.5,3.6,4.9 c1.4,1.4,3,2.6,4.9,3.6c0,0,0.1,0.1,0.4,0.2c0.2,0.1,0.4,0.2,0.5,0.4c0.1,0,0.2,0.1,0.5,0.2c0.2,0.1,0.4,0.1,0.5,0.1 c0.2,0,0.6-0.2,0.9-0.6c0.4-0.4,0.7-0.8,1.1-1.3c0.4-0.5,0.7-0.9,1.2-1.3c0.5-0.4,0.8-0.6,1.1-0.6c0.2,0,0.4,0,0.6,0.1 c0.2,0.1,0.5,0.2,0.7,0.5c0.4,0.2,0.5,0.4,0.5,0.4c0.4,0.2,0.7,0.5,1.2,0.7c0.4,0.2,0.8,0.5,1.3,0.7c0.5,0.2,0.8,0.5,1.2,0.6 c0.9,0.5,1.5,0.8,1.6,1.1C34.8,28.5,34.8,28.6,34.8,28.8L34.8,28.8z"/></symbol>
</svg>
