<svg width="730" height="160" viewBox="0 0 730 160" fill="none" xmlns="http://www.w3.org/2000/svg">
<rect width="730" height="160" fill="#00B3FF"/>
<path d="M172.377 95L170.459 89.821H158.355L156.437 95H148.496L159.487 66.4198H169.308L180.299 95H172.377ZM160.599 83.7406H168.214L164.416 73.4018L160.599 83.7406ZM194.8 95.5371C187.031 95.5371 182.984 91.4898 182.984 83.5488V66.4198H186.648V83.5488C186.648 89.3607 189.467 92.2954 194.8 92.2954C200.132 92.2954 202.99 89.3607 202.99 83.5488V66.4198H206.654V83.5488C206.654 91.4898 202.568 95.5371 194.8 95.5371ZM218.872 95V69.5848H210.26V66.4198H231.148V69.5848H222.517V95H218.872ZM247.798 95.6138C237.804 95.6138 232.337 90.6842 232.337 80.6907C232.337 70.7356 237.804 65.806 247.798 65.806C257.772 65.806 263.239 70.7356 263.239 80.6907C263.239 90.6842 257.772 95.6138 247.798 95.6138ZM247.798 92.3913C255.221 92.3913 259.46 88.5167 259.46 80.6907C259.46 72.9031 255.221 69.0669 247.798 69.0669C240.355 69.0669 236.116 72.9031 236.116 80.6907C236.116 88.5167 240.355 92.3913 247.798 92.3913ZM302.445 95.0959L297.401 73.0182L292.912 95.0959H281.192L274.843 66.4198H283.264L287.676 88.1715L291.895 66.3431H302.867L307.605 88.2482L311.652 66.4198H320.073L314.165 95.0959H302.445ZM323.468 95V66.4198H327.112V95H323.468ZM332.944 95V66.4198H335.552L353.928 88.4592V66.4198H357.572V95H355.002L336.588 72.999V95H332.944ZM363.327 95V66.4198H373.416C383.448 66.4198 388.78 71.407 388.78 80.614C388.78 89.9553 383.448 95 373.416 95H363.327ZM367.01 91.7775H373.474C381.165 91.7775 384.982 87.8262 384.982 80.614C384.982 73.5361 381.165 69.6423 373.474 69.6423H367.01V91.7775ZM407.041 95.6138C397.047 95.6138 391.581 90.6842 391.581 80.6907C391.581 70.7356 397.047 65.806 407.041 65.806C417.015 65.806 422.482 70.7356 422.482 80.6907C422.482 90.6842 417.015 95.6138 407.041 95.6138ZM407.041 92.3913C414.464 92.3913 418.703 88.5167 418.703 80.6907C418.703 72.9031 414.464 69.0669 407.041 69.0669C399.599 69.0669 395.36 72.9031 395.36 80.6907C395.36 88.5167 399.599 92.3913 407.041 92.3913ZM450.314 95.3069L443.14 70.5822L436.158 95.3069H431.325L423.69 66.4198H427.584L433.991 91.298L440.934 66.1705H445.308L452.481 91.298L458.715 66.4198H462.609L455.167 95.3069H450.314ZM486.49 95.6138C481.714 95.6138 477.091 94.2711 473.773 91.7967L476.132 85.4477C479.546 87.5193 483.344 88.6893 486.663 88.6893C489.31 88.6893 490.94 87.9605 490.94 86.5219C490.94 85.1024 488.945 84.316 485.972 83.7022C478.722 82.2828 474.156 79.233 474.156 74.2842C474.156 68.76 478.549 65.806 485.953 65.806C489.732 65.806 493.625 66.6308 496.675 68.0886L495.448 74.898C492.072 73.5553 488.504 72.8072 485.627 72.8072C483.248 72.8072 481.81 73.3635 481.81 74.6103C481.81 75.9146 483.805 76.5668 486.854 77.1614C493.741 78.3314 498.095 81.4772 498.095 86.6945C498.095 92.4681 493.76 95.6138 486.49 95.6138ZM508.74 95V69.5848H500.128V66.4198H521.016V69.5848H512.385V95H508.74ZM525.14 95V66.4198H528.785V95H525.14ZM548.446 95.6138C538.74 95.6138 533.177 90.6842 533.177 80.6907C533.177 70.7356 538.74 65.806 548.446 65.806C557.135 65.806 561.873 69.5464 562.966 77.0846H559.149C558.075 71.7139 554.584 69.0669 548.446 69.0669C541.291 69.0669 536.956 72.9031 536.956 80.6907C536.956 88.5167 541.291 92.3913 548.446 92.3913C554.622 92.3913 558.113 89.6676 559.168 84.2201H562.985C561.911 91.8543 557.154 95.6138 548.446 95.6138ZM578.273 83.0884C577.352 81.7649 576.297 81.1703 574.82 81.1703H570.83V95H567.186V66.4198H570.83V78.0054H574.743C576.086 78.0054 576.911 77.2956 577.87 76.2023L586.041 66.4198H590.318L581.629 76.7586C580.459 78.2355 579.423 79.0795 578.138 79.4823C579.596 79.8276 580.766 80.6524 581.879 82.2636L590.817 95H586.54L578.273 83.0884ZM594.27 95V66.4198H615.024V69.6231H597.857V78.3123H611.303V81.458H597.857V91.7967H615.024V95H594.27ZM619.781 95V66.4198H632.69C639.058 66.4198 642.242 69.297 642.242 74.4952C642.242 79.2138 639.614 82.0334 634.34 82.4938C635.203 83.0692 635.817 83.8365 636.315 84.7188L642.645 95H638.368L632.115 84.6613C631.482 83.5488 630.618 82.5705 628.681 82.5705H623.425V95H619.781ZM632.728 79.6358C636.622 79.6358 638.559 77.7752 638.559 74.5335C638.559 71.3111 636.584 69.4505 632.728 69.4505H623.425V79.6358H632.728ZM656.264 95.6138C652.178 95.6138 647.978 94.3095 644.966 91.7775L646.213 88.651C649.128 90.9719 652.869 92.2954 656.321 92.2954C660.407 92.2954 663.112 90.7226 663.112 87.385C663.112 83.9516 659.793 82.6472 655.784 81.6114C650.126 80.2687 645.35 78.2163 645.35 73.1333C645.35 68.1462 649.531 65.806 655.612 65.806C658.988 65.806 662.728 66.7076 665.548 68.3763L664.819 71.6755C662.018 70.0643 658.489 69.1436 655.497 69.1436C651.526 69.1436 648.994 70.352 648.994 73.2484C648.994 76.2982 652.217 77.2765 656.302 78.3123C661.846 79.5782 666.564 82.0142 666.564 87.4426C666.564 92.8709 662.325 95.6138 656.264 95.6138Z" fill="white"/>
<path d="M108.627 42C112.063 42.0001 115.359 43.4019 117.789 45.8975C120.219 48.393 121.584 51.7783 121.584 55.3076V90.9922C121.584 92.3114 121.072 93.5765 120.161 94.5068L97.9893 117.158C97.0846 118.082 95.8605 118.602 94.585 118.602H59.957C56.5207 118.601 53.2245 117.199 50.7949 114.703C48.3649 112.207 47 108.822 47 105.293V55.3076C47.0001 51.7783 48.3649 48.393 50.7949 45.8975C53.2245 43.4019 56.5207 42.0001 59.957 42H108.627ZM59.957 51.915C59.0814 51.9151 58.2407 52.2729 57.6211 52.9092C57.0017 53.5454 56.6534 54.4082 56.6533 55.3076V105.293C56.6533 106.193 57.0015 107.056 57.6211 107.692C58.2407 108.329 59.0814 108.686 59.957 108.687H87V95.6016C87.0001 92.5245 88.1904 89.573 90.3086 87.3975C92.4268 85.2221 95.3001 84 98.2959 84H111.93V55.3076C111.93 54.4082 111.582 53.5454 110.963 52.9092C110.343 52.2729 109.503 51.9151 108.627 51.915H59.957ZM98.2959 93.915C97.8607 93.9151 97.4425 94.0929 97.1348 94.4092C96.8266 94.7254 96.6534 95.1544 96.6533 95.6016V104.538L107.051 93.915H98.2959Z" fill="white"/>
</svg>
