<svg width="730" height="160" viewBox="0 0 730 160" fill="none" xmlns="http://www.w3.org/2000/svg">
<rect width="730" height="160" fill="#00B3FF"/>
<rect width="730" height="160" fill="#00B3FF"/>
<rect width="160" height="160" fill="#00B3FF"/>
<rect width="160" height="160" fill="#00B3FF"/>
<path d="M116.68 50.5C119.825 50.5 122.378 53.0521 122.378 56.1973V107.68C122.378 110.825 119.825 113.378 116.68 113.378H65.1973C62.0521 113.378 59.5 110.825 59.5 107.68V56.1973C59.5003 53.0522 62.0522 50.5003 65.1973 50.5H116.68Z" fill="#00B3FF" stroke="white" stroke-width="5"/>
<path d="M71.5 30C76.8026 30 81.2703 34.2244 81.2705 39.6328C81.2705 39.8588 81.2622 40.0852 81.2461 40.3105L80.748 47.2881L86.8057 43.3037C86.9952 43.1789 87.1862 43.0623 87.3779 42.9541L87.3809 42.9531C91.9961 40.3529 97.9471 41.859 100.67 46.4639H100.669C103.427 51.126 101.749 57.0454 97.0791 59.6777L97.0801 59.6787C96.9811 59.7346 96.8817 59.7882 96.7822 59.8398L96.4814 59.9902L90.165 63L96.4814 66.0098L96.7822 66.1602C96.8811 66.2115 96.9798 66.2648 97.0781 66.3203L97.5068 66.5762C101.849 69.3205 103.34 75.0182 100.669 79.5352C97.9462 84.1401 91.9961 85.6472 87.3809 83.0469L87.3779 83.0459C87.1857 82.9374 86.9938 82.8205 86.8037 82.6953V82.6943L80.748 78.7109L81.2461 85.6895C81.2622 85.9148 81.2705 86.1412 81.2705 86.3672C81.2703 91.7756 76.8026 96 71.5 96C66.1974 96 61.7297 91.7756 61.7295 86.3672C61.7295 86.1412 61.7378 85.9148 61.7539 85.6895L62.251 78.7109L56.1953 82.6943C56.0052 82.8195 55.8143 82.9374 55.6221 83.0459L55.6191 83.0469C51.0039 85.6471 45.0529 84.141 42.3301 79.5361L42.3311 79.5352C39.5737 74.8726 41.2515 68.9521 45.9219 66.3203C46.0202 66.2648 46.1189 66.2115 46.2178 66.1602L46.5186 66.0098L52.834 63L46.5186 59.9902L46.2178 59.8398C46.1183 59.7882 46.0189 59.7346 45.9199 59.6787V59.6777C41.2511 57.0452 39.5735 51.1257 42.3311 46.4639C45.054 41.8594 51.0041 40.353 55.6191 42.9531L55.6221 42.9541C55.8138 43.0623 56.0049 43.179 56.1943 43.3037L62.251 47.2881L61.7539 40.3105L61.7354 39.9717C61.7313 39.8589 61.7295 39.7457 61.7295 39.6328C61.7297 34.2244 66.1974 30 71.5 30Z" fill="#00B3FF" stroke="white" stroke-width="8"/>
<path d="M195.393 96L193.573 91.0852H182.086L180.266 96H172.73L183.16 68.8773H192.48L202.911 96H195.393ZM184.216 85.3148H191.443L187.839 75.5033L184.216 85.3148ZM216.672 96.5097C209.3 96.5097 205.459 92.6688 205.459 85.1327V68.8773H208.936V85.1327C208.936 90.6483 211.612 93.4334 216.672 93.4334C221.733 93.4334 224.445 90.6483 224.445 85.1327V68.8773H227.922V85.1327C227.922 92.6688 224.045 96.5097 216.672 96.5097ZM239.517 96V71.8809H231.344V68.8773H251.167V71.8809H242.976V96H239.517ZM266.968 96.5825C257.484 96.5825 252.296 91.9043 252.296 82.4205C252.296 72.973 257.484 68.2948 266.968 68.2948C276.433 68.2948 281.621 72.973 281.621 82.4205C281.621 91.9043 276.433 96.5825 266.968 96.5825ZM266.968 93.5244C274.012 93.5244 278.035 89.8473 278.035 82.4205C278.035 75.03 274.012 71.3894 266.968 71.3894C259.905 71.3894 255.882 75.03 255.882 82.4205C255.882 89.8473 259.905 93.5244 266.968 93.5244ZM318.828 96.091L314.041 75.1392L309.781 96.091H298.659L292.634 68.8773H300.625L304.812 89.5197L308.816 68.8045H319.229L323.725 89.5925L327.566 68.8773H335.557L329.95 96.091H318.828ZM338.779 96V68.8773H342.237V96H338.779ZM347.771 96V68.8773H350.247L367.685 89.7927V68.8773H371.144V96H368.705L351.23 75.121V96H347.771ZM376.605 96V68.8773H386.18C395.7 68.8773 400.76 73.6102 400.76 82.3477C400.76 91.2126 395.7 96 386.18 96H376.605ZM380.1 92.9419H386.234C393.534 92.9419 397.156 89.192 397.156 82.3477C397.156 75.6307 393.534 71.9355 386.234 71.9355H380.1V92.9419ZM418.09 96.5825C408.606 96.5825 403.418 91.9043 403.418 82.4205C403.418 72.973 408.606 68.2948 418.09 68.2948C427.555 68.2948 432.743 72.973 432.743 82.4205C432.743 91.9043 427.555 96.5825 418.09 96.5825ZM418.09 93.5244C425.134 93.5244 429.157 89.8473 429.157 82.4205C429.157 75.03 425.134 71.3894 418.09 71.3894C411.027 71.3894 407.004 75.03 407.004 82.4205C407.004 89.8473 411.027 93.5244 418.09 93.5244ZM459.156 96.2912L452.348 72.8274L445.722 96.2912H441.135L433.89 68.8773H437.585L443.665 92.4868L450.255 68.6407H454.405L461.213 92.4868L467.129 68.8773H470.824L463.761 96.2912H459.156ZM493.487 96.5825C488.955 96.5825 484.568 95.3083 481.419 92.9601L483.657 86.9348C486.898 88.9008 490.502 90.0112 493.651 90.0112C496.163 90.0112 497.71 89.3195 497.71 87.9542C497.71 86.6072 495.817 85.8609 492.996 85.2784C486.115 83.9313 481.783 81.037 481.783 76.3406C481.783 71.0981 485.951 68.2948 492.977 68.2948C496.564 68.2948 500.259 69.0776 503.153 70.461L501.988 76.9231C498.784 75.6489 495.399 74.939 492.668 74.939C490.411 74.939 489.046 75.4669 489.046 76.6501C489.046 77.8879 490.939 78.5068 493.833 79.0711C500.368 80.1815 504.5 83.1668 504.5 88.118C504.5 93.5972 500.386 96.5825 493.487 96.5825ZM514.603 96V71.8809H506.43V68.8773H526.253V71.8809H518.061V96H514.603ZM530.167 96V68.8773H533.625V96H530.167ZM552.283 96.5825C543.072 96.5825 537.794 91.9043 537.794 82.4205C537.794 72.973 543.072 68.2948 552.283 68.2948C560.529 68.2948 565.025 71.8445 566.063 78.9983H562.441C561.421 73.9014 558.108 71.3894 552.283 71.3894C545.494 71.3894 541.38 75.03 541.38 82.4205C541.38 89.8473 545.494 93.5244 552.283 93.5244C558.145 93.5244 561.458 90.9395 562.459 85.7698H566.081C565.062 93.0147 560.547 96.5825 552.283 96.5825ZM580.589 84.6959C579.715 83.4398 578.714 82.8755 577.313 82.8755H573.526V96H570.068V68.8773H573.526V79.872H577.24C578.514 79.872 579.297 79.1985 580.207 78.1609L587.961 68.8773H592.021L583.775 78.6888C582.664 80.0905 581.681 80.8914 580.462 81.2737C581.845 81.6013 582.956 82.3841 584.011 83.9131L592.494 96H588.435L580.589 84.6959ZM595.771 96V68.8773H615.466V71.9173H599.175V80.1633H611.935V83.1486H599.175V92.9601H615.466V96H595.771ZM619.981 96V68.8773H632.231C638.275 68.8773 641.297 71.6078 641.297 76.5409C641.297 81.0188 638.803 83.6947 633.797 84.1316C634.616 84.6777 635.199 85.4058 635.672 86.2431L641.679 96H637.62L631.685 86.1885C631.085 85.1327 630.265 84.2044 628.427 84.2044H623.439V96H619.981ZM632.268 81.4193C635.963 81.4193 637.802 79.6536 637.802 76.5773C637.802 73.5191 635.927 71.7534 632.268 71.7534H623.439V81.4193H632.268ZM654.603 96.5825C650.726 96.5825 646.739 95.3447 643.881 92.9419L645.065 89.9748C647.831 92.1773 651.381 93.4334 654.658 93.4334C658.535 93.4334 661.102 91.9407 661.102 88.7734C661.102 85.515 657.952 84.2772 654.148 83.2942C648.778 82.02 644.245 80.0723 644.245 75.2484C644.245 70.5156 648.214 68.2948 653.984 68.2948C657.188 68.2948 660.738 69.1504 663.413 70.7341L662.722 73.865C660.064 72.3359 656.715 71.4622 653.875 71.4622C650.107 71.4622 647.704 72.609 647.704 75.3577C647.704 78.252 650.762 79.1803 654.639 80.1633C659.9 81.3647 664.378 83.6765 664.378 88.828C664.378 93.9795 660.355 96.5825 654.603 96.5825Z" fill="white"/>
</svg>
