<svg width="730" height="160" viewBox="0 0 730 160" fill="none" xmlns="http://www.w3.org/2000/svg">
<rect width="730" height="160" fill="#FF6600"/>
<rect width="730" height="160" fill="#FF6600"/>
<rect width="160" height="160" fill="#EA1B00"/>
<rect width="160" height="160" fill="#EA1B00"/>
<path d="M106.68 50.5C109.825 50.5 112.378 53.0521 112.378 56.1973V107.68C112.378 110.825 109.825 113.378 106.68 113.378H55.1973C52.0521 113.378 49.5 110.825 49.5 107.68V56.1973C49.5003 53.0522 52.0522 50.5003 55.1973 50.5H106.68Z" fill="#EA1B00" stroke="white" stroke-width="5"/>
<path d="M61.5 30C66.8026 30 71.2703 34.2244 71.2705 39.6328C71.2705 39.8588 71.2622 40.0852 71.2461 40.3105L70.748 47.2881L76.8057 43.3037C76.9952 43.1789 77.1862 43.0623 77.3779 42.9541L77.3809 42.9531C81.9961 40.3529 87.9471 41.859 90.6699 46.4639H90.6689C93.4266 51.126 91.7485 57.0454 87.0791 59.6777L87.0801 59.6787C86.9811 59.7346 86.8817 59.7882 86.7822 59.8398L86.4814 59.9902L80.165 63L86.4814 66.0098L86.7822 66.1602C86.8811 66.2115 86.9798 66.2648 87.0781 66.3203L87.5068 66.5762C91.849 69.3205 93.3402 75.0182 90.6689 79.5352C87.9462 84.1401 81.9961 85.6472 77.3809 83.0469L77.3779 83.0459C77.1857 82.9374 76.9938 82.8205 76.8037 82.6953V82.6943L70.748 78.7109L71.2461 85.6895C71.2622 85.9148 71.2705 86.1412 71.2705 86.3672C71.2703 91.7756 66.8026 96 61.5 96C56.1974 96 51.7297 91.7756 51.7295 86.3672C51.7295 86.1412 51.7378 85.9148 51.7539 85.6895L52.251 78.7109L46.1953 82.6943C46.0052 82.8195 45.8143 82.9374 45.6221 83.0459L45.6191 83.0469C41.0039 85.6471 35.0529 84.141 32.3301 79.5361L32.3311 79.5352C29.5737 74.8726 31.2515 68.9521 35.9219 66.3203C36.0202 66.2648 36.1189 66.2115 36.2178 66.1602L36.5186 66.0098L42.834 63L36.5186 59.9902L36.2178 59.8398C36.1183 59.7882 36.0189 59.7346 35.9199 59.6787V59.6777C31.2511 57.0452 29.5735 51.1257 32.3311 46.4639C35.054 41.8594 41.0041 40.353 45.6191 42.9531L45.6221 42.9541C45.8138 43.0623 46.0048 43.179 46.1943 43.3037L52.251 47.2881L51.7539 40.3105L51.7354 39.9717C51.7313 39.8589 51.7295 39.7457 51.7295 39.6328C51.7297 34.2244 56.1974 30 61.5 30Z" fill="#FF6600" stroke="white" stroke-width="8"/>
<path d="M216.893 94L215.073 89.0852H203.586L201.766 94H194.23L204.66 66.8773H213.98L224.411 94H216.893ZM205.716 83.3148H212.943L209.339 73.5033L205.716 83.3148ZM238.172 94.5097C230.8 94.5097 226.959 90.6688 226.959 83.1327V66.8773H230.436V83.1327C230.436 88.6483 233.112 91.4334 238.172 91.4334C243.233 91.4334 245.945 88.6483 245.945 83.1327V66.8773H249.422V83.1327C249.422 90.6688 245.545 94.5097 238.172 94.5097ZM261.017 94V69.8809H252.844V66.8773H272.667V69.8809H264.476V94H261.017ZM288.468 94.5825C278.984 94.5825 273.796 89.9043 273.796 80.4205C273.796 70.973 278.984 66.2948 288.468 66.2948C297.933 66.2948 303.121 70.973 303.121 80.4205C303.121 89.9043 297.933 94.5825 288.468 94.5825ZM288.468 91.5244C295.512 91.5244 299.535 87.8473 299.535 80.4205C299.535 73.03 295.512 69.3894 288.468 69.3894C281.405 69.3894 277.382 73.03 277.382 80.4205C277.382 87.8473 281.405 91.5244 288.468 91.5244ZM340.328 94.091L335.541 73.1392L331.281 94.091H320.159L314.134 66.8773H322.125L326.312 87.5197L330.316 66.8045H340.729L345.225 87.5925L349.066 66.8773H357.057L351.45 94.091H340.328ZM360.279 94V66.8773H363.737V94H360.279ZM369.271 94V66.8773H371.747L389.185 87.7927V66.8773H392.644V94H390.205L372.73 73.121V94H369.271ZM398.105 94V66.8773H407.68C417.2 66.8773 422.26 71.6102 422.26 80.3477C422.26 89.2126 417.2 94 407.68 94H398.105ZM401.6 90.9419H407.734C415.034 90.9419 418.656 87.192 418.656 80.3477C418.656 73.6307 415.034 69.9355 407.734 69.9355H401.6V90.9419ZM439.59 94.5825C430.106 94.5825 424.918 89.9043 424.918 80.4205C424.918 70.973 430.106 66.2948 439.59 66.2948C449.055 66.2948 454.243 70.973 454.243 80.4205C454.243 89.9043 449.055 94.5825 439.59 94.5825ZM439.59 91.5244C446.634 91.5244 450.657 87.8473 450.657 80.4205C450.657 73.03 446.634 69.3894 439.59 69.3894C432.527 69.3894 428.504 73.03 428.504 80.4205C428.504 87.8473 432.527 91.5244 439.59 91.5244ZM480.656 94.2912L473.848 70.8274L467.222 94.2912H462.635L455.39 66.8773H459.085L465.165 90.4868L471.755 66.6407H475.905L482.713 90.4868L488.629 66.8773H492.324L485.261 94.2912H480.656ZM514.987 94.5825C510.455 94.5825 506.068 93.3083 502.919 90.9601L505.157 84.9348C508.398 86.9008 512.002 88.0112 515.151 88.0112C517.663 88.0112 519.21 87.3195 519.21 85.9542C519.21 84.6072 517.317 83.8609 514.496 83.2784C507.615 81.9313 503.283 79.037 503.283 74.3406C503.283 69.0981 507.451 66.2948 514.477 66.2948C518.064 66.2948 521.759 67.0776 524.653 68.461L523.488 74.9231C520.284 73.6489 516.899 72.939 514.168 72.939C511.911 72.939 510.546 73.4669 510.546 74.6501C510.546 75.8879 512.439 76.5068 515.333 77.0711C521.868 78.1815 526 81.1668 526 86.118C526 91.5972 521.886 94.5825 514.987 94.5825ZM536.103 94V69.8809H527.93V66.8773H547.753V69.8809H539.561V94H536.103ZM551.667 94V66.8773H555.125V94H551.667ZM573.783 94.5825C564.572 94.5825 559.294 89.9043 559.294 80.4205C559.294 70.973 564.572 66.2948 573.783 66.2948C582.029 66.2948 586.525 69.8445 587.563 76.9983H583.941C582.921 71.9014 579.608 69.3894 573.783 69.3894C566.994 69.3894 562.88 73.03 562.88 80.4205C562.88 87.8473 566.994 91.5244 573.783 91.5244C579.645 91.5244 582.958 88.9395 583.959 83.7698H587.581C586.562 91.0147 582.047 94.5825 573.783 94.5825ZM602.089 82.6959C601.215 81.4398 600.214 80.8755 598.813 80.8755H595.026V94H591.568V66.8773H595.026V77.872H598.74C600.014 77.872 600.797 77.1985 601.707 76.1609L609.461 66.8773H613.521L605.275 76.6888C604.164 78.0905 603.181 78.8914 601.962 79.2737C603.345 79.6013 604.456 80.3841 605.511 81.9131L613.994 94H609.935L602.089 82.6959ZM617.271 94V66.8773H636.966V69.9173H620.675V78.1633H633.435V81.1486H620.675V90.9601H636.966V94H617.271ZM641.481 94V66.8773H653.731C659.775 66.8773 662.797 69.6078 662.797 74.5409C662.797 79.0188 660.303 81.6947 655.297 82.1316C656.116 82.6777 656.699 83.4058 657.172 84.2431L663.179 94H659.12L653.185 84.1885C652.585 83.1327 651.765 82.2044 649.927 82.2044H644.939V94H641.481ZM653.768 79.4193C657.463 79.4193 659.302 77.6536 659.302 74.5773C659.302 71.5191 657.427 69.7534 653.768 69.7534H644.939V79.4193H653.768ZM676.103 94.5825C672.226 94.5825 668.239 93.3447 665.381 90.9419L666.565 87.9748C669.331 90.1773 672.881 91.4334 676.158 91.4334C680.035 91.4334 682.602 89.9407 682.602 86.7734C682.602 83.515 679.452 82.2772 675.648 81.2942C670.278 80.02 665.745 78.0723 665.745 73.2484C665.745 68.5156 669.714 66.2948 675.484 66.2948C678.688 66.2948 682.238 67.1504 684.913 68.7341L684.222 71.865C681.564 70.3359 678.215 69.4622 675.375 69.4622C671.607 69.4622 669.204 70.609 669.204 73.3577C669.204 76.252 672.262 77.1803 676.139 78.1633C681.4 79.3647 685.878 81.6765 685.878 86.828C685.878 91.9795 681.855 94.5825 676.103 94.5825Z" fill="white"/>
</svg>
